********* Knucklehead.2010.DVDRiP.XviD.MULTISUB-Zen_Bud *********

Format                           : AVI
Format profile                   : OpenDML
File size                        : 700 MiB
Duration                         : 1h 36mn
Overall bit rate                 : 1 019 Kbps
Writing application              : AVI-Mux GUI 1.17.8.3

Video

Format                           : MPEG-4 Visual
Codec ID/Hint                    : XviD
Duration                         : 1h 36mn
Bit rate                         : 887 Kbps
Width                            : 720 pixels
Height                           : 552 pixels
Display aspect ratio             : 1.855
Stream size                      : 609 MiB (87%)
Writing library                  : XviD 1.1.2 (UTC 2006-11-01)

Audio

Format                           : MPEG Audio
Codec ID/Hint                    : MP3
Duration                         : 1h 36mn
Bit rate                         : 128 Kbps
Channel(s)                       : 2 channels
Sampling rate                    : 48.0 KHz
Stream size                      : 87.9 MiB (13%)
Language                         : English

Text #1
Language                         : English

Text #2
Language                         : Dutch

Text #3
Language                         : Greek

Text #4
Language                         : Norwegian

Text #5
Language                         : Swedish

Text #6
Language                         : Danish

Text #7
Language                         : Finnish

Text #8
Language                         : Italian

Text #9
Language                         : German

Text #10
Language                         : French



After con artist Eddie Sullivan (Feuerstein) incurs a large debt with a local criminal ringleader, he creates a get-rich-quick scheme and enlists a sweet gentle giant named Walter (Wight) as his unwitting accomplice. Walter's orphanage -- the only home he's ever known -- also needs funds desperately...
